<svg width="414" height="896" viewBox="0 0 414 896" fill="none" xmlns="http://www.w3.org/2000/svg">
<g clip-path="url(#clip0)">
<rect width="414" height="896" fill="url(#paint0_linear)"/>
<path opacity="0.2" d="M175.5 297L-9.5 35V297H175.5Z" fill="url(#paint1_linear)"/>
<path opacity="0.2" d="M285.398 306.136L-11 -19.1265L1.89219 317.01L285.398 306.136Z" fill="url(#paint2_linear)"/>
<path opacity="0.2" fill-rule="evenodd" clip-rule="evenodd" d="M395 129H322C304.879 129 291 115.121 291 98C291 80.8792 304.879 67 322 67C322.59 67 323.177 67.0165 323.759 67.0491C330.139 53.4317 343.968 44 360 44C381.939 44 399.753 61.6629 399.997 83.5444C410.297 85.8264 418 95.0137 418 106C418 118.368 408.239 128.455 396 128.979V129H395Z" fill="url(#paint3_linear)"/>
</g>
<defs>
<linearGradient id="paint0_linear" x1="0" y1="0" x2="399.866" y2="896.149" gradientUnits="userSpaceOnUse">
<stop stop-color="#1B96FF"/>
<stop offset="1" stop-color="#B0EAFD"/>
</linearGradient>
<linearGradient id="paint1_linear" x1="-8.99999" y1="35" x2="68.5" y2="275.5" gradientUnits="userSpaceOnUse">
<stop stop-color="white"/>
<stop offset="1" stop-color="white" stop-opacity="0"/>
</linearGradient>
<linearGradient id="paint2_linear" x1="-10.2338" y1="-19.1559" x2="87.5944" y2="295.045" gradientUnits="userSpaceOnUse">
<stop stop-color="white"/>
<stop offset="1" stop-color="white" stop-opacity="0"/>
</linearGradient>
<linearGradient id="paint3_linear" x1="354.5" y1="44" x2="354.5" y2="129" gradientUnits="userSpaceOnUse">
<stop stop-color="white"/>
<stop offset="1" stop-color="white" stop-opacity="0"/>
</linearGradient>
<clipPath id="clip0">
<rect width="414" height="896" fill="white"/>
</clipPath>
</defs>
</svg>
