<svg width="20" height="20" viewBox="0 0 20 20" fill="none" xmlns="http://www.w3.org/2000/svg">
<rect opacity="0.3" x="4.16666" y="7.5" width="12.5" height="10" fill="#B1BAD5"/>
<path d="M15 6.66667H16.6667C16.8877 6.66667 17.0996 6.75447 17.2559 6.91075C17.4122 7.06703 17.5 7.27899 17.5 7.5V17.5C17.5 17.721 17.4122 17.933 17.2559 18.0893C17.0996 18.2455 16.8877 18.3333 16.6667 18.3333H3.33333C3.11232 18.3333 2.90036 18.2455 2.74408 18.0893C2.5878 17.933 2.5 17.721 2.5 17.5V7.5C2.5 7.27899 2.5878 7.06703 2.74408 6.91075C2.90036 6.75447 3.11232 6.66667 3.33333 6.66667H5V5.83334C5 4.50725 5.52678 3.23548 6.46447 2.2978C7.40215 1.36012 8.67392 0.833336 10 0.833336C11.3261 0.833336 12.5979 1.36012 13.5355 2.2978C14.4732 3.23548 15 4.50725 15 5.83334V6.66667ZM4.16667 8.33334V16.6667H15.8333V8.33334H4.16667ZM9.16667 11.6667H10.8333V13.3333H9.16667V11.6667ZM5.83333 11.6667H7.5V13.3333H5.83333V11.6667ZM12.5 11.6667H14.1667V13.3333H12.5V11.6667ZM13.3333 6.66667V5.83334C13.3333 4.94928 12.9821 4.10143 12.357 3.47631C11.7319 2.85119 10.8841 2.5 10 2.5C9.11594 2.5 8.2681 2.85119 7.64298 3.47631C7.01786 4.10143 6.66667 4.94928 6.66667 5.83334V6.66667H13.3333Z" fill="#B1BAD5"/>
</svg>
