<svg width="306" height="61" viewBox="0 0 306 61" fill="none" xmlns="http://www.w3.org/2000/svg">
<path d="M12.608 20.54H25.516V22.724H0.512001V20.54H10.424V1.58396H12.608V7.74396H23.612V9.95596H12.608V20.54Z" fill="white"/>
<path d="M30.444 1.33196L34.84 4.99996L33.44 6.70796L29.016 3.03996L30.444 1.33196ZM29.016 8.91996L30.444 7.21196L34.84 10.88L33.44 12.588L29.016 8.91996ZM30.444 23.284L28.512 22.248L32.88 14.212L34.812 15.248L30.444 23.284ZM40.048 1.80796C39.9733 1.99462 39.8987 2.18129 39.824 2.36796C39.768 2.53596 39.6933 2.71329 39.6 2.89996H53.18V5.11196H38.508C38.004 6.00796 37.556 6.71729 37.164 7.23996C36.7907 7.76262 36.5853 8.04262 36.548 8.07996L35.708 7.37996L34.84 6.70796C34.84 6.70796 34.9427 6.56796 35.148 6.28796C35.372 5.98929 35.6333 5.58796 35.932 5.08396C36.2493 4.57996 36.5947 3.98262 36.968 3.29196C37.3413 2.60129 37.6867 1.83596 38.004 0.995957L40.048 1.80796ZM51.584 14.268V17.908H52.984V20.12H51.584V20.652C51.584 21.3426 51.332 21.9306 50.828 22.416C50.3427 22.92 49.7547 23.172 49.064 23.172H46.46V20.96H49.064C49.2693 20.96 49.372 20.8573 49.372 20.652V20.12H36.548L37.192 14.268H35.96V12.056H37.444L38.088 6.39996H49.372V5.89596H51.584V12.056H53.264V14.268H51.584ZM39.684 12.056H43.52L42.428 10.572L44.192 9.25596L46.264 12.056H49.372V8.61196H40.076L39.684 12.056ZM49.372 14.268H39.432L39.012 17.908H43.464L42.12 16.088L43.884 14.772L46.208 17.908H49.372V14.268Z" fill="white"/>
<path d="M70.316 8.69596H77.792V8.07996H79.976V18.804C79.976 19.4946 79.7333 20.0826 79.248 20.568C78.7627 21.072 78.1747 21.324 77.484 21.324H74.628V19.112H77.484C77.6893 19.112 77.792 19.0093 77.792 18.804V10.88H70.316V23.06H68.104V10.88H60.208V21.268H57.996V8.69596H68.104V5.86796H56.848V3.65596H67.88L66.9 2.22796L68.72 0.995957L70.568 3.65596H81.152V5.86796H70.316V8.69596Z" fill="white"/>
<path d="M105.848 16.676H108.032V20.624C108.032 21.3146 107.789 21.9026 107.304 22.388C106.819 22.892 106.221 23.144 105.512 23.144H97.952V17.068H105.848V16.676ZM105.848 19.28H100.136V20.932H105.512C105.736 20.932 105.848 20.8293 105.848 20.624V19.28ZM98.092 4.24396V4.69196H107.528V6.90396H86.472V4.69196H95.908V4.24396H85.016V2.05996H95.908V1.35996H98.092V2.05996H108.984V4.24396H98.092ZM109.488 15.864H84.512V13.652H90.728L89.72 12.784H87.032V7.65996H104.756V7.23996H106.968V10.264C106.968 10.9546 106.716 11.552 106.212 12.056C105.727 12.5413 105.139 12.784 104.448 12.784H103.72L102.796 13.652H109.488V15.864ZM89.244 10.572H104.448C104.653 10.572 104.756 10.4693 104.756 10.264V9.84396H89.244V10.572ZM94.088 13.652H99.632L100.556 12.784H93.052L94.088 13.652ZM84.596 21.072C84.764 21.016 84.9693 20.932 85.212 20.82C85.4547 20.708 85.716 20.568 85.996 20.4C86.276 20.232 86.556 20.0453 86.836 19.84C87.116 19.6346 87.3773 19.4106 87.62 19.168H85.856V16.956H88.46V16.172H90.672V16.956H94.788V16.564H97V20.512C97 21.2026 96.7573 21.7906 96.272 22.276C95.7867 22.7613 95.1893 23.004 94.48 23.004H92.072V20.82H94.48C94.6853 20.82 94.788 20.7173 94.788 20.512V19.168H90.308C89.972 19.8213 89.5333 20.3906 88.992 20.876C88.4507 21.38 87.9187 21.7906 87.396 22.108C86.8733 22.444 86.4067 22.696 85.996 22.864C85.604 23.032 85.3893 23.1253 85.352 23.144L84.596 21.072Z" fill="white"/>
<path d="M134.576 7.82796V5.30796H115.564V7.82796H113.352V3.09596H124.02L123.404 1.89196L125.336 0.855957L126.512 3.09596H134.576V2.59196H136.788V7.82796H134.576ZM116.572 19.42C116.199 20.0546 115.797 20.6893 115.368 21.324C114.957 21.9773 114.5 22.6213 113.996 23.256L112.26 21.912C113.119 20.8293 113.865 19.7373 114.5 18.636C115.135 17.516 115.657 16.508 116.068 15.612C116.497 14.6973 116.815 13.9506 117.02 13.372C117.225 12.7933 117.328 12.504 117.328 12.504L119.428 13.176C119.409 13.232 119.251 13.6613 118.952 14.464C118.672 15.248 118.233 16.2373 117.636 17.432C117.897 17.6746 118.261 17.9826 118.728 18.356C119.195 18.7106 119.727 19.056 120.324 19.392C120.94 19.7466 121.603 20.0453 122.312 20.288C123.04 20.5493 123.796 20.68 124.58 20.68H124.636V11.132H112.988V8.91996H137.096V11.132H126.848V14.38H134.716V16.564H126.848V20.68H137.012V22.892H124.58C123.703 22.892 122.853 22.7706 122.032 22.528C121.229 22.2853 120.483 21.9866 119.792 21.632C119.12 21.296 118.504 20.9226 117.944 20.512C117.403 20.12 116.945 19.756 116.572 19.42Z" fill="white"/>
<path d="M143.312 20.624H164.788V22.836H141.128V1.72396H164.368V3.93596H143.312V20.624ZM145.16 16.704C146.429 16.1626 147.661 15.528 148.856 14.8C150.051 14.0533 151.189 13.26 152.272 12.42L145.72 7.15596L147.092 5.44796L154.036 11.02C154.932 10.2733 155.744 9.55462 156.472 8.86396C157.2 8.15462 157.825 7.52929 158.348 6.98796C158.889 6.42796 159.309 5.98929 159.608 5.67196C159.907 5.33596 160.065 5.15862 160.084 5.13996L161.736 6.56796C161.699 6.62396 161.531 6.81996 161.232 7.15596C160.933 7.49196 160.523 7.93062 160 8.47196C159.477 8.99462 158.861 9.60129 158.152 10.292C157.443 10.9826 156.659 11.692 155.8 12.42L161.848 17.264L160.448 18.972L154.064 13.848C152.869 14.7813 151.591 15.6773 150.228 16.536C148.884 17.3946 147.484 18.1226 146.028 18.72L145.16 16.704Z" fill="white"/>
<path d="M173.804 5.27996H168.484V3.06796H173.804V1.38796H175.988V3.06796H180.02V5.27996H175.988V6.67996H173.804V5.27996ZM185.984 5.27996H181.98V3.06796H185.984V1.38796H188.196V3.06796H193.488V5.27996H188.196V6.67996H185.984V5.27996ZM174.056 6.87596C174.056 6.93196 173.935 7.18396 173.692 7.63196H190.296V7.04396H192.48V20.568C192.48 21.2773 192.237 21.8746 191.752 22.36C191.267 22.8453 190.669 23.088 189.96 23.088H188.644V20.904H189.96C190.184 20.904 190.296 20.792 190.296 20.568V9.84396H172.432C172.171 10.2546 171.881 10.6653 171.564 11.076C171.247 11.4866 170.901 11.888 170.528 12.28L168.96 10.768C169.427 10.264 169.847 9.74129 170.22 9.19996C170.612 8.63996 170.939 8.12662 171.2 7.65996C171.461 7.19329 171.667 6.81062 171.816 6.51196C171.965 6.19462 172.04 6.03596 172.04 6.03596L174.056 6.87596ZM181.868 17.768L182.82 16.816H181.028V23.116H178.816V16.816H177.836C177.631 17.096 177.341 17.4786 176.968 17.964C176.595 18.4493 176.128 18.972 175.568 19.532C175.027 20.092 174.392 20.6613 173.664 21.24C172.955 21.8186 172.171 22.3413 171.312 22.808L170.248 20.904C171.312 20.3066 172.245 19.6346 173.048 18.888C173.869 18.1226 174.541 17.432 175.064 16.816H170.752V14.604H175.26L172.712 12.252L174.224 10.628L177.416 13.596L176.492 14.604H178.816V10.488H181.028V14.604H183.324L182.4 13.596L185.62 10.628L187.104 12.252L184.556 14.604H188.784V16.816H184.024L188.476 21.212L186.908 22.78L181.868 17.768Z" fill="white"/>
<path d="M218.212 1.33196H220.424V20.344C220.424 21.0346 220.181 21.6226 219.696 22.108C219.211 22.612 218.613 22.864 217.904 22.864H197.268V1.83596H218.212V1.33196ZM218.212 4.04796H199.48V20.652H217.904C218.109 20.652 218.212 20.5493 218.212 20.344V4.04796ZM200.348 17.432C200.367 17.432 200.581 17.3293 200.992 17.124C201.421 16.9 201.907 16.592 202.448 16.2C202.989 15.7893 203.512 15.304 204.016 14.744C204.539 14.1653 204.903 13.5213 205.108 12.812V12.168H200.908V9.98396H216.784V12.168H212.556V17.376H214.74C214.945 17.376 215.048 17.2733 215.048 17.068V15.864H217.26V17.068C217.26 17.7586 217.008 18.356 216.504 18.86C216.019 19.3453 215.431 19.588 214.74 19.588H210.344V12.168H207.32V13.092L207.292 13.204C207.031 14.1933 206.583 15.0706 205.948 15.836C205.313 16.6013 204.651 17.2546 203.96 17.796C203.288 18.3186 202.681 18.72 202.14 19C201.617 19.28 201.328 19.4293 201.272 19.448L200.348 17.432ZM214.852 7.93996H202.448V5.72796H214.852V7.93996Z" fill="white"/>
<path d="M246.912 7.79996H249.124V12.028H246.912V10.6H227.2V12.028H225.016V8.38796H235.516L234.984 7.57596L236.86 6.39996L238.092 8.38796H246.912V7.79996ZM245.064 16.732H247.276V20.484C247.276 21.1746 247.033 21.7626 246.548 22.248C246.063 22.752 245.465 23.004 244.756 23.004H227.424V11.272H244.084V10.88H246.268V14.044C246.268 14.7346 246.025 15.332 245.54 15.836C245.055 16.3213 244.457 16.564 243.748 16.564H229.636V17.376H245.064V16.732ZM229.636 13.484V14.352H243.748C243.972 14.352 244.084 14.2493 244.084 14.044V13.484H229.636ZM244.756 20.792C244.961 20.792 245.064 20.6893 245.064 20.484V19.588H229.636V20.792H244.756ZM228.068 5.08396C227.545 5.73729 227.079 6.27862 226.668 6.70796C226.276 7.11862 226.061 7.34262 226.024 7.37996L224.456 5.83996C224.456 5.83996 224.596 5.69062 224.876 5.39196C225.175 5.09329 225.52 4.71062 225.912 4.24396C226.304 3.77729 226.705 3.26396 227.116 2.70396C227.545 2.12529 227.891 1.55596 228.152 0.995957L230.14 1.94796C230.065 2.09729 229.981 2.25596 229.888 2.42396C229.813 2.57329 229.729 2.72262 229.636 2.87196H236.72V5.08396H233.444L234.284 6.17596L232.548 7.54796L230.644 5.08396H228.068ZM242.768 1.94796C242.619 2.26529 242.451 2.57329 242.264 2.87196H249.348V5.08396H246.072L246.94 6.17596L245.204 7.54796L243.3 5.08396H240.724C240.201 5.73729 239.735 6.27862 239.324 6.70796C238.913 7.11862 238.689 7.34262 238.652 7.37996L237.112 5.83996C237.112 5.83996 237.252 5.69062 237.532 5.39196C237.831 5.09329 238.176 4.71062 238.568 4.24396C238.96 3.77729 239.361 3.26396 239.772 2.70396C240.183 2.12529 240.528 1.55596 240.808 0.995957L242.768 1.94796Z" fill="white"/>
<path d="M277.152 21.044L276.648 23.172L265.476 20.512C264.039 20.9973 262.601 21.3986 261.164 21.716C259.745 22.0333 258.448 22.2853 257.272 22.472C256.115 22.6586 255.153 22.7893 254.388 22.864C253.641 22.9573 253.221 23.004 253.128 23.004L252.96 20.82C252.979 20.82 253.212 20.792 253.66 20.736C254.108 20.6986 254.696 20.624 255.424 20.512C256.171 20.4186 257.029 20.288 258 20.12C258.989 19.952 260.016 19.7373 261.08 19.476L256.012 18.272L257.384 15.612H253.548V13.4H258.504L259.68 11.132L261.64 12.112L260.968 13.4H276.508V15.612H273.232V16.2L272.868 16.536C272.327 17.0213 271.729 17.4786 271.076 17.908C270.423 18.3373 269.723 18.7293 268.976 19.084L277.152 21.044ZM265.364 18.216C266.335 17.88 267.259 17.4973 268.136 17.068C269.032 16.6386 269.835 16.1533 270.544 15.612H259.848L259.26 16.76L265.364 18.216ZM254.948 2.11596H270.348C270.721 2.11596 271.141 2.08796 271.608 2.03196C272.075 1.95729 272.532 1.87329 272.98 1.77996C273.428 1.66796 273.839 1.56529 274.212 1.47196C274.604 1.35996 274.903 1.27596 275.108 1.21996L275.752 3.31996C275.715 3.31996 275.509 3.37596 275.136 3.48796C274.781 3.59996 274.333 3.72129 273.792 3.85196C273.269 3.96396 272.7 4.07596 272.084 4.18796C271.468 4.28129 270.889 4.32796 270.348 4.32796H266.12V5.78396H277.124V7.99596H272L276.928 9.89996L276.144 11.944L267.436 8.58396L267.66 7.99596H266.12V11.776H263.908V7.99596H263.096C262.835 8.21996 262.424 8.52796 261.864 8.91996C261.304 9.31196 260.613 9.72262 259.792 10.152C258.989 10.5813 258.056 10.992 256.992 11.384C255.947 11.776 254.808 12.0746 253.576 12.28L253.212 10.096C254.425 9.89062 255.527 9.60129 256.516 9.22796C257.524 8.83596 258.401 8.42529 259.148 7.99596H253.212V5.78396H263.908V4.32796H254.948V2.11596Z" fill="white"/>
<path d="M301.484 1.69596L305.6 8.55596L303.724 9.70396L300.224 3.90796H287.596V1.69596H301.484ZM287.12 2.31196C286.691 3.22662 286.205 4.11329 285.664 4.97196C285.141 5.83062 284.637 6.59596 284.152 7.26796C283.685 7.92129 283.275 8.46262 282.92 8.89196C282.584 9.30262 282.397 9.52662 282.36 9.56396L280.708 8.10796C280.708 8.08929 280.867 7.89329 281.184 7.51996C281.501 7.12796 281.884 6.62396 282.332 6.00796C282.799 5.37329 283.284 4.65462 283.788 3.85196C284.292 3.04929 284.731 2.22796 285.104 1.38796L287.12 2.31196ZM285.58 7.54796H300.728V9.73196H285.58V7.54796ZM281.184 12.392H305.124V14.604H290.228L285.804 20.428L299.3 19.308L297.984 17.18L299.86 16.004L303.724 22.276L301.876 23.424L300.616 21.408L283.032 22.864V20.428L287.484 14.604H281.184V12.392Z" fill="white"/>
<path d="M5.804 42.28H0.484001V40.068H5.804V38.388H7.988V40.068H12.02V42.28H7.988V43.68H5.804V42.28ZM17.984 42.28H13.98V40.068H17.984V38.388H20.196V40.068H25.488V42.28H20.196V43.68H17.984V42.28ZM6.056 43.876C6.056 43.932 5.93467 44.184 5.692 44.632H22.296V44.044H24.48V57.568C24.48 58.2773 24.2373 58.8746 23.752 59.36C23.2667 59.8453 22.6693 60.088 21.96 60.088H20.644V57.904H21.96C22.184 57.904 22.296 57.792 22.296 57.568V46.844H4.432C4.17067 47.2546 3.88133 47.6653 3.564 48.076C3.24667 48.4866 2.90133 48.888 2.528 49.28L0.960001 47.768C1.42667 47.264 1.84667 46.7413 2.22 46.2C2.612 45.64 2.93867 45.1266 3.2 44.66C3.46133 44.1933 3.66667 43.8106 3.816 43.512C3.96533 43.1946 4.04 43.036 4.04 43.036L6.056 43.876ZM13.868 54.768L14.82 53.816H13.028V60.116H10.816V53.816H9.836C9.63067 54.096 9.34133 54.4786 8.968 54.964C8.59467 55.4493 8.128 55.972 7.568 56.532C7.02667 57.092 6.392 57.6613 5.664 58.24C4.95467 58.8186 4.17067 59.3413 3.312 59.808L2.248 57.904C3.312 57.3066 4.24533 56.6346 5.048 55.888C5.86933 55.1226 6.54133 54.432 7.064 53.816H2.752V51.604H7.26L4.712 49.252L6.224 47.628L9.416 50.596L8.492 51.604H10.816V47.488H13.028V51.604H15.324L14.4 50.596L17.62 47.628L19.104 49.252L16.556 51.604H20.784V53.816H16.024L20.476 58.212L18.908 59.78L13.868 54.768Z" fill="white"/>
<path d="M50.212 38.332H52.424V57.344C52.424 58.0346 52.1813 58.6226 51.696 59.108C51.2107 59.612 50.6133 59.864 49.904 59.864H29.268V38.836H50.212V38.332ZM50.212 41.048H31.48V57.652H49.904C50.1093 57.652 50.212 57.5493 50.212 57.344V41.048ZM32.348 54.432C32.3667 54.432 32.5813 54.3293 32.992 54.124C33.4213 53.9 33.9067 53.592 34.448 53.2C34.9893 52.7893 35.512 52.304 36.016 51.744C36.5387 51.1653 36.9027 50.5213 37.108 49.812V49.168H32.908V46.984H48.784V49.168H44.556V54.376H46.74C46.9453 54.376 47.048 54.2733 47.048 54.068V52.864H49.26V54.068C49.26 54.7586 49.008 55.356 48.504 55.86C48.0187 56.3453 47.4307 56.588 46.74 56.588H42.344V49.168H39.32V50.092L39.292 50.204C39.0307 51.1933 38.5827 52.0706 37.948 52.836C37.3133 53.6013 36.6507 54.2546 35.96 54.796C35.288 55.3186 34.6813 55.72 34.14 56C33.6173 56.28 33.328 56.4293 33.272 56.448L32.348 54.432ZM46.852 44.94H34.448V42.728H46.852V44.94Z" fill="white"/>
<path d="M63.988 38.388V40.096H68.02V42.308H63.988V43.708H61.804V42.308H56.484V40.096H61.804V38.388H63.988ZM81.488 42.308H76.196V43.708H73.984V42.308H69.98V40.096H73.984V38.388H76.196V40.096H81.488V42.308ZM81.18 53.788H75.44L81.04 58.044L79.696 59.808L72.752 54.516L73.284 53.788H70.092V60.06H67.908V53.788H65.472C65.3973 53.9186 65.1827 54.2173 64.828 54.684C64.492 55.132 64.0067 55.664 63.372 56.28C62.7373 56.896 61.944 57.5493 60.992 58.24C60.04 58.9306 58.9107 59.556 57.604 60.116L56.708 58.1C58.2013 57.4466 59.4427 56.7186 60.432 55.916C61.4213 55.0946 62.1773 54.3853 62.7 53.788H56.82V51.604H67.908V50.484H70.092V51.604H81.18V53.788ZM80.592 45.164C80.1627 45.3506 79.7147 45.5186 79.248 45.668C78.8 45.7986 78.3613 45.9106 77.932 46.004L79.248 47.32C78.8 47.768 78.3333 48.188 77.848 48.58C77.3627 48.972 76.9147 49.3173 76.504 49.616C76.0933 49.896 75.748 50.12 75.468 50.288C75.2067 50.456 75.0667 50.5493 75.048 50.568L74.488 49.616L73.928 48.664C73.928 48.664 74.0307 48.5986 74.236 48.468C74.4413 48.3373 74.7027 48.16 75.02 47.936C75.3373 47.712 75.692 47.4506 76.084 47.152C76.476 46.8533 76.868 46.5266 77.26 46.172C76.7 46.284 76.1587 46.3773 75.636 46.452C75.132 46.508 74.684 46.5546 74.292 46.592C73.9 46.6106 73.5827 46.6293 73.34 46.648C73.0973 46.648 72.9667 46.648 72.948 46.648H67.964L70.232 48.636L68.804 50.288L65.668 47.544L66.452 46.648H61.076L63.68 48.944L62.252 50.596L59.116 47.852L60.18 46.648H57.548V44.436H72.948C72.9667 44.436 73.1813 44.4266 73.592 44.408C74.0213 44.3893 74.5627 44.3426 75.216 44.268C75.888 44.1746 76.616 44.044 77.4 43.876C78.2027 43.708 78.9773 43.4653 79.724 43.148L80.592 45.164Z" fill="white"/>
<path d="M87.704 56.812V44.436H84.876V42.252H87.704V38.892H89.916V42.252H92.744V44.436H89.916V56.224L92.632 55.468L93.22 57.568L85.296 59.78L84.708 57.652L87.704 56.812ZM109.376 57.316C109.376 58.0066 109.124 58.5946 108.62 59.08C108.135 59.5653 107.547 59.808 106.856 59.808H103.16V57.624H106.856C107.061 57.624 107.164 57.5213 107.164 57.316V47.712H106.492C106.343 48.048 106.025 48.6546 105.54 49.532C105.055 50.4093 104.373 51.436 103.496 52.612C102.619 53.788 101.527 55.0386 100.22 56.364C98.932 57.708 97.4013 58.9866 95.628 60.2L94.368 58.38C95.7493 57.428 96.972 56.4386 98.036 55.412C99.1187 54.3853 100.052 53.396 100.836 52.444C101.639 51.4733 102.301 50.5773 102.824 49.756C103.347 48.9346 103.748 48.2533 104.028 47.712H100.808C100.621 47.992 100.332 48.412 99.94 48.972C99.548 49.5133 99.0533 50.1386 98.456 50.848C97.8587 51.5386 97.168 52.276 96.384 53.06C95.6187 53.8253 94.76 54.572 93.808 55.3L92.464 53.536C93.0987 53.0506 93.696 52.5466 94.256 52.024C94.8347 51.5013 95.3573 50.988 95.824 50.484C96.3093 49.9613 96.7387 49.4666 97.112 49C97.504 48.5146 97.84 48.0853 98.12 47.712H94.2V45.472L94.956 45.22C95.852 44.9026 96.7573 44.5666 97.672 44.212C98.5867 43.8386 99.464 43.4653 100.304 43.092C101.144 42.7 101.937 42.3266 102.684 41.972C103.449 41.5986 104.131 41.2626 104.728 40.964H94.368V38.752H106.576V38.388H108.788V41.272L108.228 41.608C108.172 41.6266 107.92 41.7573 107.472 42C107.043 42.2426 106.464 42.5506 105.736 42.924C105.027 43.2786 104.196 43.6893 103.244 44.156C102.292 44.604 101.284 45.0613 100.22 45.528H107.164V45.08H109.376V57.316Z" fill="white"/>
<path d="M137.208 47.488C137.208 48.1973 136.956 48.7946 136.452 49.28C135.967 49.7653 135.379 50.008 134.688 50.008H126.848V39.984H134.996V39.48H137.208V47.488ZM134.996 42.168H129.032V47.824H134.688C134.781 47.824 134.856 47.796 134.912 47.74C134.968 47.6653 134.996 47.5813 134.996 47.488V42.168ZM136.032 57.652C136.032 58.3426 135.78 58.9306 135.276 59.416C134.791 59.9013 134.203 60.144 133.512 60.144H114.416V51.268H133.82V50.764H136.032V57.652ZM116.628 53.48V54.6H133.82V53.48H116.628ZM116.628 57.96H133.512C133.717 57.96 133.82 57.8573 133.82 57.652V56.784H116.628V57.96ZM112.708 48.832C112.951 48.7386 113.249 48.608 113.604 48.44C113.959 48.272 114.341 48.076 114.752 47.852C115.163 47.628 115.573 47.376 115.984 47.096C116.413 46.816 116.815 46.5173 117.188 46.2H113.24V43.988H118.812C118.868 43.8013 118.896 43.5866 118.896 43.344V42.112H115.648C115.461 42.3733 115.265 42.644 115.06 42.924C114.855 43.204 114.631 43.484 114.388 43.764L112.708 42.308C113.156 41.804 113.539 41.3093 113.856 40.824C114.192 40.3386 114.463 39.9093 114.668 39.536C114.911 39.088 115.116 38.6586 115.284 38.248L117.356 39.004C117.337 39.0226 117.3 39.116 117.244 39.284C117.188 39.452 117.085 39.6666 116.936 39.928H125.364V42.112H121.108V43.344C121.108 43.456 121.099 43.568 121.08 43.68C121.08 43.792 121.071 43.8946 121.052 43.988H126.148V46.2H121.836L126.316 48.72L125.224 50.624L120.184 47.796L121.08 46.2H120.156C119.465 47.1706 118.467 48.0946 117.16 48.972C116.712 49.2706 116.273 49.5413 115.844 49.784C115.415 50.008 115.032 50.204 114.696 50.372C114.36 50.54 114.08 50.6706 113.856 50.764C113.651 50.8573 113.539 50.904 113.52 50.904L113.128 49.868L112.708 48.832Z" fill="white"/>
<path d="M143.088 54.908L145.02 56L142.668 60.172L140.736 59.08L143.088 54.908ZM165.04 59.08L163.136 60.172L160.784 56L162.688 54.908L165.04 59.08ZM156.416 57.876H161.092V60.088H146.056V55.076H148.24V57.876H154.512L151.292 56.616L152.02 54.74H142.92V52.556H160.028C160.252 52.556 160.364 52.444 160.364 52.22V52.08H143.452V49.98H160.364V49.476H142.92V47.264H160.364V46.9H162.548V52.22C162.548 52.9293 162.305 53.5266 161.82 54.012C161.335 54.4973 160.737 54.74 160.028 54.74H152.58L156.976 56.476L156.416 57.876ZM145.776 46.508H141.268V44.296H145.776V43.848H141.996V41.748H145.776V41.3H141.268V39.116H145.776V38.416H147.988V39.116H152.468V41.3H147.988V41.748H151.768V43.848H147.988V44.296H152.468V46.508H147.988V46.928H145.776V46.508ZM157.788 46.508H153.308V44.296H157.788V43.848H154.008V41.748H157.788V41.3H153.308V39.116H157.788V38.416H160V39.116H164.508V41.3H160V41.748H163.808V43.848H160V44.296H164.508V46.508H160V46.928H157.788V46.508Z" fill="white"/>
<path d="M173.076 42.532L177.164 48.132L175.372 49.42L171.284 43.82L173.076 42.532ZM186.712 49.42L184.948 48.132L189.036 42.532L190.8 43.82L186.712 49.42ZM182.148 41.272V51.1H193.348V53.284H182.148V60.06H179.964V53.284H168.764V51.1H179.964V41.272H170.052V39.06H192.032V41.272H182.148Z" fill="white"/>
<path d="M207.292 39.564L200.74 46.06L216.308 44.632L215.132 42.728L217.008 41.58L220.564 47.376L218.688 48.524L217.596 46.732L197.744 48.552V45.948L205.752 37.996L207.292 39.564ZM219.164 57.344C219.164 58.0346 218.921 58.6226 218.436 59.108C217.951 59.612 217.353 59.864 216.644 59.864H198.724V50.288H216.98V49.812H219.164V57.344ZM200.936 57.652H216.644C216.737 57.652 216.812 57.624 216.868 57.568C216.943 57.512 216.98 57.4373 216.98 57.344V52.5H200.936V57.652Z" fill="white"/>
</svg>
