<svg width="68" height="68" viewBox="0 0 68 68" fill="none" xmlns="http://www.w3.org/2000/svg">
<g clip-path="url(#clip0)">
<path d="M0 34C0 52.7776 15.2224 68 34 68C52.7776 68 68 52.7776 68 34C68 15.2224 52.7776 0 34 0C15.2224 0 0 15.2224 0 34Z" fill="#25A6FF"/>
<path d="M34 67.9999C46.3787 67.9999 57.2093 61.3827 63.1555 51.4945L63.1534 51.4472C61.4385 48.8377 49.6575 44.8857 45.0351 44.8857C35.8647 60.9167 23.4871 47.6445 23.7108 45.035C17.306 44.5946 9.58748 49.2202 5.30402 52.226C11.338 61.7056 21.9305 67.9999 34 67.9999Z" fill="#0090F2"/>
<path d="M23.8574 45.7593C25.2711 49.4206 36.5309 59.7519 45.0352 44.8859C45.1026 44.8859 45.1765 44.8896 45.2466 44.8912C43.6475 43.375 42.415 40.8548 42.8895 36.2754C38.6187 42.9596 30.4874 43.3559 26.3091 36.4502C26.6135 38.4679 26.4643 41.6378 23.8574 45.7593Z" fill="#D1E8FE"/>
<path d="M26.0875 36.796C26.4652 38.138 36.227 47.2532 45.0728 45.0166C42.484 41.8291 43.401 36.8524 43.5625 33.8885C44.4789 31.8751 26.3569 35.0068 26.0875 36.796Z" fill="#B5D6F7"/>
<path d="M45.6535 25.9904C45.5988 29.0052 45.059 31.6009 44.1814 33.7589C49.0816 32.359 50.2376 21.3393 45.6535 25.9904Z" fill="#B5D6F6"/>
<path d="M43.1434 18.7892C33.506 20.9514 29.5312 16.5521 27.5624 15.2102C24.4126 17.7267 25.1999 23.5423 24.1873 24.6048C24.0141 24.3865 23.8546 24.1576 23.7097 23.9195C22.8289 47.9118 45.8724 46.2867 45.6589 25.1908C43.579 22.0028 43.9514 21.93 43.1434 18.7892Z" fill="#DBEDFF"/>
<path d="M27.5622 15.2108C29.531 16.5527 33.5059 20.952 43.1433 18.7898C43.9683 21.9959 43.5555 21.9959 45.7868 25.3885C47.4177 25.9479 52.1432 9.89826 38.3052 7.71748C22.1058 5.20095 20.0249 19.4608 24.1872 24.6054C25.1998 23.5429 24.4124 17.7268 27.5622 15.2108Z" fill="#0090F2"/>
</g>
<defs>
<clipPath id="clip0">
<rect width="68" height="68" fill="white"/>
</clipPath>
</defs>
</svg>
