<svg width="68" height="68" viewBox="0 0 68 68" fill="none" xmlns="http://www.w3.org/2000/svg">
<g clip-path="url(#clip0)">
<path d="M0 34C0 52.7776 15.2224 68 34 68C52.7776 68 68 52.7776 68 34C68 15.2224 52.7776 0 34 0C15.2224 0 0 15.2224 0 34Z" fill="#1481EF"/>
<path d="M34.0002 68C46.3789 68 57.2094 61.3828 63.1557 51.4946L63.1536 51.4473C61.4387 48.8378 49.6577 44.8858 45.0353 44.8858C35.8649 60.9168 23.4873 47.6446 23.7109 45.0351C17.3062 44.5947 9.58767 49.2203 5.3042 52.2261C11.3381 61.7058 21.9307 68 34.0002 68Z" fill="#0C69D5"/>
<path d="M23.8574 45.7592C25.2711 49.4206 36.5309 59.7518 45.0352 44.8859C45.1026 44.8859 45.1765 44.8896 45.2466 44.8912C43.6475 43.375 42.415 40.8547 42.8895 36.2754C38.6187 42.9595 30.4874 43.3559 26.3091 36.4501C26.6135 38.4678 26.4643 41.6378 23.8574 45.7592Z" fill="#D1E8FE"/>
<path d="M26.0874 36.796C26.4651 38.1379 36.2268 47.2531 45.0727 45.0165C42.4839 41.829 43.4008 36.8523 43.5623 33.8884C44.4787 31.875 26.3567 35.0067 26.0874 36.796Z" fill="#B5D6F7"/>
<path d="M45.6537 25.9904C45.599 29.0052 45.0593 31.6009 44.1816 33.7588C49.0819 32.359 50.2379 21.3393 45.6537 25.9904Z" fill="#B5D6F6"/>
<path d="M43.1433 18.7893C33.5059 20.9515 29.5311 16.5522 27.5623 15.2102C24.4125 17.7268 25.1998 23.5424 24.1873 24.6049C24.014 24.3865 23.8545 24.1577 23.7097 23.9195C22.8289 47.9119 45.8724 46.2868 45.6588 25.1908C43.579 22.0028 43.9514 21.93 43.1433 18.7893Z" fill="#DBEDFF"/>
<path d="M27.5624 15.2108C29.5312 16.5527 33.506 20.952 43.1434 18.7898C43.9684 21.9959 43.5556 21.9959 45.7869 25.3885C47.4178 25.9479 52.1433 9.89826 38.3053 7.71748C22.1059 5.20095 20.025 19.4608 24.1873 24.6054C25.1999 23.5429 24.4126 17.7268 27.5624 15.2108Z" fill="#0C69D5"/>
</g>
<defs>
<clipPath id="clip0">
<rect width="68" height="68" fill="white"/>
</clipPath>
</defs>
</svg>
