<svg width="20" height="20" viewBox="0 0 20 20" fill="none" xmlns="http://www.w3.org/2000/svg">
<path opacity="0.3" d="M10 3.33333C6.32501 3.33333 3.33334 6.325 3.33334 9.99999C3.33334 11.5167 3.85001 12.9083 4.70001 14.025C5.89168 12.575 8.78334 12.0833 10 12.0833C11.2167 12.0833 14.1083 12.575 15.3 14.025C16.1853 12.8699 16.6656 11.4554 16.6667 9.99999C16.6667 6.325 13.675 3.33333 10 3.33333ZM10 10.8333C8.38334 10.8333 7.08334 9.53333 7.08334 7.91666C7.08334 6.29999 8.38334 4.99999 10 4.99999C11.6167 4.99999 12.9167 6.29999 12.9167 7.91666C12.9167 9.53333 11.6167 10.8333 10 10.8333Z" fill="#B1BAD4"/>
<path d="M9.99999 1.66667C5.39999 1.66667 1.66666 5.40001 1.66666 10C1.66666 14.6 5.39999 18.3333 9.99999 18.3333C14.6 18.3333 18.3333 14.6 18.3333 10C18.3333 5.40001 14.6 1.66667 9.99999 1.66667ZM5.89166 15.2333C6.24999 14.4833 8.43332 13.75 9.99999 13.75C11.5667 13.75 13.7583 14.4833 14.1083 15.2333C12.975 16.1333 11.55 16.6667 9.99999 16.6667C8.44999 16.6667 7.02499 16.1333 5.89166 15.2333ZM15.3 14.025C14.1083 12.575 11.2167 12.0833 9.99999 12.0833C8.78332 12.0833 5.89166 12.575 4.69999 14.025C3.8147 12.8699 3.33441 11.4554 3.33332 10C3.33332 6.32501 6.32499 3.33334 9.99999 3.33334C13.675 3.33334 16.6667 6.32501 16.6667 10C16.6667 11.5167 16.15 12.9083 15.3 14.025ZM9.99999 5.00001C8.38332 5.00001 7.08332 6.3 7.08332 7.91667C7.08332 9.53334 8.38332 10.8333 9.99999 10.8333C11.6167 10.8333 12.9167 9.53334 12.9167 7.91667C12.9167 6.3 11.6167 5.00001 9.99999 5.00001ZM9.99999 9.16667C9.30832 9.16667 8.74999 8.60834 8.74999 7.91667C8.74999 7.22501 9.30832 6.66667 9.99999 6.66667C10.6917 6.66667 11.25 7.22501 11.25 7.91667C11.25 8.60834 10.6917 9.16667 9.99999 9.16667Z" fill="#B1BAD4"/>
</svg>
