<svg width="414" height="300" viewBox="0 0 414 300" fill="none" xmlns="http://www.w3.org/2000/svg">
<g clip-path="url(#clip0)">
<rect width="414" height="300" fill="url(#paint0_linear)"/>
<path opacity="0.2" d="M175.5 297L-9.5 35V297H175.5Z" fill="url(#paint1_linear)"/>
<path opacity="0.2" d="M285.398 306.136L-11 -19.1265L1.89219 317.01L285.398 306.136Z" fill="url(#paint2_linear)"/>
<path opacity="0.2" fill-rule="evenodd" clip-rule="evenodd" d="M434 129H361C343.879 129 330 115.121 330 98C330 80.8792 343.879 67 361 67C361.59 67 362.177 67.0165 362.759 67.0491C369.139 53.4317 382.968 44 399 44C420.939 44 438.753 61.6629 438.997 83.5444C449.297 85.8264 457 95.0137 457 106C457 118.368 447.239 128.455 435 128.979V129H434Z" fill="url(#paint3_linear)"/>
</g>
<defs>
<linearGradient id="paint0_linear" x1="207" y1="0" x2="207" y2="300" gradientUnits="userSpaceOnUse">
<stop stop-color="#2B9EFF"/>
<stop offset="1" stop-color="#5DCEFD"/>
</linearGradient>
<linearGradient id="paint1_linear" x1="-8.99999" y1="35" x2="68.5" y2="275.5" gradientUnits="userSpaceOnUse">
<stop stop-color="white"/>
<stop offset="1" stop-color="white" stop-opacity="0"/>
</linearGradient>
<linearGradient id="paint2_linear" x1="-10.2338" y1="-19.1559" x2="87.5944" y2="295.045" gradientUnits="userSpaceOnUse">
<stop stop-color="white"/>
<stop offset="1" stop-color="white" stop-opacity="0"/>
</linearGradient>
<linearGradient id="paint3_linear" x1="393.5" y1="44" x2="393.5" y2="129" gradientUnits="userSpaceOnUse">
<stop stop-color="white"/>
<stop offset="1" stop-color="white" stop-opacity="0"/>
</linearGradient>
<clipPath id="clip0">
<rect width="414" height="300" fill="white"/>
</clipPath>
</defs>
</svg>
